<svg width="120" height="120" viewBox="0 0 120 120" fill="none" xmlns="http://www.w3.org/2000/svg">

    <g id="html">
        <path d="M22.1325 102.004L13.7063 7.5H106.294L97.8563 101.989L59.9438 112.5L22.1325 102.004Z" fill="#E44F26"/>
        <path d="M60 104.468L90.6375 95.9738L97.845 15.2288H60V104.468Z" fill="#F1662A"/>
        <path d="M60 50.2762H44.6625L43.605 38.4074H60V26.8162H30.9375L31.215 29.9287L34.0613 61.8674H60V50.2762ZM60 80.3774L59.9475 80.3924L47.04 76.9087L46.215 67.6649H34.5787L36.2025 85.8599L59.9475 92.4524L60 92.4374V80.3774Z"
              fill="#EBEBEB"/>
        <path d="M59.9587 50.2762V61.8674H74.2312L72.8887 76.9012L59.9587 80.3887V92.4487L83.7225 85.8599L83.895 83.9024L86.6175 53.3887L86.9025 50.2762H59.9587ZM59.9587 26.8162V38.4074H87.9562L88.1887 35.8049L88.7175 29.9287L88.995 26.8162H59.9587Z"
              fill="white"/>
    </g>

    <g id="css">

        <path d="M22.1325 101.154L13.71 7.4375H106.29L97.8562 101.139L59.9437 111.562L22.1325 101.154Z" fill="#1572B6"/>
        <path d="M60 103.597L90.6375 95.1739L97.845 15.1018H60V103.597Z" fill="#33A9DC"/>
        <path d="M60 49.054H75.3375L76.395 37.2842H60V25.7896H89.0625L88.785 28.8724L85.9387 60.5487H60V49.054Z"
              fill="white"/>
        <path d="M60.0713 78.9045L60.0188 78.9193L47.1113 75.4609L46.2863 66.2942H34.65L36.2738 84.3413L60.015 90.8788L60.0713 90.864V78.9045Z"
              fill="#EBEBEB"/>
        <path d="M74.3513 60.0615L72.9563 75.4534L60.03 78.9119V90.8714L83.79 84.3412L83.9663 82.4001L85.98 60.0615H74.3513Z"
              fill="white"/>
        <path d="M60.0413 25.7896V37.2842H32.0438L31.8113 34.6997L31.2825 28.8724L31.005 25.7896H60.0413ZM60 49.054V60.5487H47.2538L47.0213 57.9642L46.4963 52.1369L46.2188 49.054H60Z"
              fill="#EBEBEB"/>
    </g>

    <g id="js">
        <path d="M7.5 7.5H112.5V112.5H7.5V7.5Z" fill="#F5DE19"/>
        <path d="M78.0338 89.5312C78.9284 91.3485 80.3183 92.8759 82.0434 93.9375C83.7684 94.9991 85.7584 95.5515 87.7838 95.5313C91.8713 95.5313 94.485 93.4875 94.485 90.6562C94.485 87.2812 91.8 86.0738 87.3 84.105L84.8325 83.0475C77.7075 80.0138 72.9825 76.215 72.9825 68.1825C72.9825 60.7838 78.6075 55.1475 87.4313 55.1475C90.2877 54.9412 93.1416 55.5805 95.637 56.9856C98.1324 58.3907 100.159 60.4994 101.464 63.0488L93.75 67.98C93.2476 66.716 92.3728 65.6345 91.2416 64.879C90.1105 64.1236 88.7764 63.7298 87.4163 63.75C86.8229 63.6906 86.2236 63.7555 85.6567 63.9404C85.0897 64.1254 84.5675 64.4265 84.1234 64.8244C83.6792 65.2224 83.3228 65.7085 83.0769 66.2518C82.831 66.7951 82.7009 67.3837 82.695 67.98C82.695 70.9388 84.5288 72.1388 88.7625 73.98L91.23 75.0375C99.615 78.6338 104.355 82.2975 104.355 90.5363C104.355 99.42 97.3763 104.287 88.005 104.287C84.3537 104.52 80.713 103.691 77.5223 101.901C74.3317 100.11 71.7274 97.4342 70.0238 94.1963L78.0338 89.5312ZM43.1775 90.3863C44.7263 93.135 46.1363 95.46 49.5263 95.46C52.7663 95.46 54.8138 94.1925 54.8138 89.2612V55.71H64.68V89.3925C64.68 99.6075 58.68 104.257 49.9463 104.257C46.8591 104.426 43.7931 103.657 41.1513 102.051C38.5096 100.444 36.4157 98.0761 35.145 95.2575L43.1775 90.3863Z"
              fill="black"/>
    </g>

    <g id="react">
        <g clip-path="url(#clip0_1_418)">
            <path d="M92.9056 32.7027C91.7031 32.2886 90.4904 31.905 89.2687 31.5522C89.4739 30.7106 89.6628 29.8791 89.8306 29.0622C92.5838 15.6483 90.7839 4.84172 84.6361 1.28369C78.7416 -2.12728 69.1016 1.42943 59.3659 9.93336C58.4064 10.773 57.4682 11.6368 56.5522 12.5239C55.9389 11.934 55.3149 11.3555 54.6803 10.7888C44.4767 1.6961 34.2493 -2.13614 28.1081 1.43209C22.2189 4.85368 20.475 15.0126 22.9538 27.7253C23.2004 28.9844 23.4788 30.2369 23.7888 31.4818C22.3412 31.8947 20.9442 32.3341 19.6073 32.8019C7.64443 36.9881 0.00476074 43.5482 0.00476074 50.3528C0.00476074 57.3808 8.20629 64.4299 20.6662 68.7043C21.6763 69.0494 22.6949 69.3692 23.7209 69.6633C23.3877 71.0041 23.0918 72.354 22.8337 73.7113C20.4706 86.2034 22.316 96.1222 28.1893 99.5221C34.2555 103.033 44.437 99.4247 54.3506 90.7267C55.1545 90.0196 55.9407 89.2924 56.7084 88.5459C57.7004 89.5065 58.7189 90.4392 59.7627 91.3429C69.366 99.6364 78.8502 102.985 84.7177 99.5762C90.7782 96.0549 92.748 85.3994 90.1907 72.4355C89.9893 71.4199 89.7634 70.4093 89.5132 69.4046C90.2282 69.192 90.93 68.9732 91.6141 68.7455C104.567 64.4384 112.995 57.4747 112.995 50.3528C112.995 43.5234 105.109 36.919 92.9056 32.7027ZM90.0963 64.1473C89.4783 64.3524 88.8445 64.5504 88.1984 64.7431C86.7683 60.1995 84.8387 55.3683 82.4769 50.3763C84.7305 45.5035 86.586 40.7339 87.9759 36.2199C89.1319 36.5557 90.2534 36.9097 91.3347 37.2831C101.791 40.8961 108.169 46.2371 108.169 50.3528C108.169 54.7366 101.281 60.4276 90.0963 64.1473ZM85.4557 73.3764C86.5865 79.1086 86.7476 84.2915 85.9986 88.3435C85.3259 91.9843 83.9727 94.4114 82.299 95.3838C78.7385 97.4525 71.1235 94.7636 62.911 87.6706C61.9401 86.8304 60.9927 85.9633 60.0699 85.0703C63.2539 81.5756 66.4358 77.513 69.5412 73.0008C75.0036 72.5144 80.1641 71.7188 84.844 70.633C85.0694 71.5425 85.2734 72.4572 85.4557 73.3764ZM38.5257 95.0263C35.0469 96.2591 32.2759 96.2946 30.6009 95.3253C27.0369 93.2623 25.5552 85.298 27.5762 74.615C27.8165 73.3526 28.0916 72.0972 28.4012 70.8501C33.0294 71.8778 38.1523 72.6167 43.6275 73.0623C46.7542 77.4776 50.0278 81.5357 53.3271 85.0893C52.6259 85.7702 51.9082 86.4337 51.1745 87.0792C46.7904 90.9252 42.3974 93.6539 38.5257 95.0263ZM22.2277 64.1203C16.7181 62.2301 12.168 59.7738 9.04931 57.0933C6.24661 54.6848 4.83202 52.2931 4.83202 50.3528C4.83202 46.2234 10.9657 40.9563 21.1962 37.3766C22.4378 36.9424 23.7372 36.5327 25.0856 36.1482C26.4997 40.764 28.3544 45.5903 30.5926 50.4707C28.3252 55.4232 26.4441 60.3266 25.0163 64.997C24.0798 64.7277 23.15 64.4354 22.2277 64.1203ZM27.691 26.7946C25.5676 15.903 26.9777 7.687 30.5268 5.62491C34.3067 3.42861 42.6653 6.56005 51.4755 14.4115C52.05 14.9246 52.6152 15.4482 53.1708 15.9818C49.8879 19.5199 46.6443 23.548 43.5454 27.9371C38.2313 28.4314 33.1446 29.2252 28.4678 30.2888C28.1797 29.131 27.9206 27.966 27.691 26.795V26.7946ZM76.4301 38.8738C75.3255 36.9588 74.1799 35.0679 72.9941 33.2023C76.5992 33.6599 80.0533 34.2673 83.297 35.0097C82.3233 38.1425 81.1095 41.4175 79.6808 44.7753C78.6365 42.7866 77.5527 40.8191 76.4301 38.8738ZM56.5544 19.4442C58.7806 21.8651 61.0104 24.5677 63.2036 27.5003C58.7546 27.2894 54.2982 27.2885 49.8491 27.4976C52.0445 24.5921 54.2932 21.893 56.5544 19.4442ZM36.5511 38.9071C35.4425 40.8366 34.3789 42.7919 33.3613 44.7713C31.956 41.4254 30.7532 38.1354 29.7712 34.9583C32.9949 34.2345 36.4328 33.6427 40.0149 33.1935C38.8159 35.0704 37.661 36.9753 36.5511 38.9066V38.9071ZM40.1178 67.8569C36.4169 67.4422 32.9274 66.881 29.7045 66.1766C30.702 62.9429 31.9312 59.5828 33.367 56.1652C34.3887 58.1461 35.4567 60.1025 36.57 62.033C37.7149 64.0175 38.9005 65.9613 40.1178 67.8569ZM56.6877 81.6026C54.3996 79.1255 52.1177 76.3847 49.8892 73.4371C52.0528 73.5222 54.2584 73.5656 56.5001 73.5656C58.8031 73.5656 61.0797 73.5137 63.3206 73.4136C61.1203 76.4144 58.8989 79.1591 56.6877 81.6026ZM79.7263 55.9907C81.2366 59.4459 82.5096 62.7883 83.5203 65.9667C80.2444 66.7171 76.7073 67.3213 72.9804 67.77C74.1746 65.8699 75.3311 63.9461 76.4491 61.9998C77.5858 60.0214 78.6784 58.0179 79.7263 55.9907ZM72.268 59.5793C70.5565 62.5634 68.7487 65.4908 66.8475 68.357C63.4038 68.6018 59.9525 68.7234 56.5001 68.7216C52.9837 68.7216 49.5635 68.6117 46.27 68.3973C44.3193 65.5378 42.477 62.6052 40.7472 59.6059H40.7476C39.0259 56.6224 37.4177 53.5744 35.9265 50.4685C37.4139 47.3618 39.0172 44.3124 40.733 41.3266L40.7326 41.3271C42.4478 38.3406 44.2753 35.4206 46.2113 32.5733C49.5715 32.3181 53.0172 32.1853 56.4996 32.1853H56.5001C59.9984 32.1853 63.4486 32.3195 66.8078 32.5764C68.7243 35.4194 70.5402 38.3294 72.2521 41.3009C73.9736 44.2801 75.5982 47.3146 77.1231 50.3998C75.6138 53.5165 73.9944 56.5783 72.268 59.5793ZM82.2253 5.4805C86.0087 7.67061 87.4803 16.5023 85.103 28.0841C84.9512 28.823 84.7808 29.5756 84.5955 30.3389C79.9072 29.2527 74.8169 28.4452 69.4874 27.9433C66.3828 23.5059 63.1656 19.4717 59.9361 15.9792C60.7825 15.1603 61.6491 14.3627 62.5349 13.5871C70.8768 6.30135 78.6732 3.42462 82.2253 5.4805ZM56.5001 40.2263C62.0724 40.2263 66.5898 44.7602 66.5898 50.3528C66.5898 55.9455 62.0724 60.4794 56.5001 60.4794C50.9278 60.4794 46.4104 55.9455 46.4104 50.3528C46.4104 44.7602 50.9278 40.2263 56.5001 40.2263Z"
                  fill="#00D8FF"/>
        </g>
        <defs>
            <clipPath id="clip0_1_418">
                <rect width="113" height="101" fill="white"/>
            </clipPath>
        </defs>
    </g>

    <g id="logo">
        <g clip-path="url(#clip0_1_388)">
            <path d="M12.5581 0V3.83066C11.5028 3.83066 10.6796 3.98157 10.0882 4.28338C9.49679 4.57357 9.24169 5.15977 9.32287 6.04199L9.86206 11.1785C10.0012 12.4786 9.85626 13.5292 9.42722 14.3301C9.00978 15.131 8.36623 15.7464 7.49655 16.1758C6.63848 16.5938 5.62386 16.8897 4.45271 17.0638C5.69343 17.2495 6.74284 17.5514 7.60092 17.9693C8.45899 18.3871 9.08516 18.9907 9.47941 19.7801C9.87366 20.5695 10.0012 21.6258 9.86206 22.9492L9.32287 28.0857C9.24169 28.9679 9.49679 29.5541 10.0882 29.8443C10.6796 30.146 11.5028 30.297 12.5581 30.297V34.1277C9.35765 34.1277 7.1081 33.6401 5.80939 32.6651C4.52229 31.7016 4.00048 30.0475 4.24398 27.7026L4.76579 22.7227C4.85856 21.8406 4.70782 21.1499 4.31357 20.6507C3.93091 20.1516 3.36272 19.8033 2.60901 19.6059C1.85529 19.3971 0.985626 19.2926 0 19.2926V14.8351C0.97403 14.8351 1.8379 14.7364 2.59162 14.5391C3.34533 14.3301 3.91932 13.9761 4.31357 13.477C4.70782 12.9778 4.85856 12.2871 4.76579 11.4049L4.24398 6.45987C3.98889 4.06861 4.51068 2.39706 5.80939 1.4452C7.1081 0.481734 9.35765 0 12.5581 0Z"
                  fill="url(#paint0_linear_1_388)"/>
            <path d="M27.633 4.50977C30.5087 4.50977 32.6771 5.62414 34.1381 7.85288C35.6108 10.07 36.3471 13.1636 36.3471 17.1335C36.3471 21.115 35.6108 24.2318 34.1381 26.4838C32.6771 28.7242 30.5087 29.8443 27.633 29.8443C24.7342 29.8443 22.5541 28.7242 21.0931 26.4838C19.6436 24.2318 18.9189 21.115 18.9189 17.1335C18.9189 13.1636 19.6436 10.07 21.0931 7.85288C22.5541 5.62414 24.7342 4.50977 27.633 4.50977ZM27.633 8.49713C26.4039 8.49713 25.5052 9.15879 24.937 10.4821C24.3689 11.7938 24.0847 14.0109 24.0847 17.1335C24.0847 18.1551 24.1022 19.0663 24.1369 19.8672C24.1718 20.6566 24.224 21.3589 24.2935 21.9741L30.1724 9.66374C29.8942 9.22264 29.5463 8.92083 29.1289 8.75831C28.7231 8.5842 28.2244 8.49713 27.633 8.49713ZM31.1465 17.1335C31.1465 15.7986 31.1175 14.6726 31.0595 13.7555L25.511 25.2302C25.7662 25.4739 26.0676 25.6422 26.4154 25.7351C26.775 25.8279 27.1808 25.8744 27.633 25.8744C28.4564 25.8744 29.1231 25.5958 29.6333 25.0387C30.1551 24.4815 30.5377 23.5644 30.7812 22.2875C31.0248 20.999 31.1465 19.281 31.1465 17.1335Z"
                  fill="url(#paint1_linear_1_388)"/>
            <path d="M48.5 4.50977C51.3758 4.50977 53.5442 5.62414 55.0052 7.85288C56.4779 10.07 57.2141 13.1636 57.2141 17.1335C57.2141 21.115 56.4779 24.2318 55.0052 26.4838C53.5442 28.7242 51.3758 29.8443 48.5 29.8443C45.6011 29.8443 43.4212 28.7242 41.9602 26.4838C40.5107 24.2318 39.786 21.115 39.786 17.1335C39.786 13.1636 40.5107 10.07 41.9602 7.85288C43.4212 5.62414 45.6011 4.50977 48.5 4.50977ZM48.5 8.49713C47.271 8.49713 46.3723 9.15879 45.8041 10.4821C45.2359 11.7938 44.9518 14.0109 44.9518 17.1335C44.9518 18.1551 44.9692 19.0663 45.004 19.8672C45.0387 20.6566 45.0909 21.3589 45.1605 21.9741L51.0395 9.66374C50.7611 9.22264 50.4133 8.92083 49.9959 8.75831C49.59 8.5842 49.0914 8.49713 48.5 8.49713ZM52.0135 17.1335C52.0135 15.7986 51.9846 14.6726 51.9266 13.7555L46.3781 25.2302C46.6331 25.4739 46.9347 25.6422 47.2825 25.7351C47.642 25.8279 48.0478 25.8744 48.5 25.8744C49.3233 25.8744 49.99 25.5958 50.5003 25.0387C51.022 24.4815 51.4048 23.5644 51.6482 22.2875C51.8917 20.999 52.0135 19.281 52.0135 17.1335Z"
                  fill="url(#paint2_linear_1_388)"/>
            <path d="M68.1146 29.8095L62.8966 28.1902L71.889 9.26321H61.2964V5.11914H77.4549V8.84532L68.1146 29.8095Z"
                  fill="url(#paint3_linear_1_388)"/>
            <path d="M84.4419 0C87.6423 0 89.8861 0.481734 91.1732 1.4452C92.4719 2.40867 92.9995 4.06862 92.756 6.42505L92.2342 11.4049C92.1414 12.2871 92.2921 12.9778 92.6864 13.477C93.0807 13.9761 93.6488 14.3301 94.3909 14.5391C95.1447 14.7364 96.0144 14.8351 97 14.8351V19.2926C96.0259 19.2926 95.1621 19.3971 94.4083 19.6059C93.6547 19.8033 93.0807 20.1516 92.6864 20.6507C92.2921 21.1499 92.1414 21.8406 92.2342 22.7227L92.756 27.6678C93.0227 30.0475 92.5009 31.719 91.1905 32.6824C89.8918 33.646 87.6423 34.1277 84.4419 34.1277V30.297C85.5088 30.297 86.3378 30.146 86.9291 29.8443C87.5206 29.5541 87.7699 28.9679 87.6772 28.0857L87.1379 22.9492C86.9988 21.6374 87.1379 20.5868 87.5553 19.7976C87.9844 18.9965 88.6338 18.3871 89.5035 17.9693C90.373 17.5397 91.3935 17.238 92.5646 17.0638C91.3239 16.8781 90.2688 16.5763 89.3991 16.1584C88.5409 15.7405 87.9149 15.1369 87.5206 14.3476C87.1263 13.5466 86.9988 12.4903 87.1379 11.1785L87.6772 6.04199C87.7699 5.15977 87.5147 4.57357 86.9118 4.28338C86.3204 3.98157 85.4971 3.83066 84.4419 3.83066V0Z"
                  fill="url(#paint4_linear_1_388)"/>
            <path d="M12.2745 42.1621C13.2416 42.1621 14.0207 42.4024 14.6121 42.883C15.2035 43.3635 15.6349 44.0426 15.9062 44.9202C16.1845 45.7977 16.3237 46.839 16.3237 48.0439C16.3237 49.1862 16.1567 50.2065 15.8227 51.1049C15.4888 51.9964 15.0052 52.6999 14.3722 53.2153C13.739 53.7238 12.9702 53.978 12.0657 53.978C10.9873 53.978 10.1107 53.5914 9.43585 52.8182V57.9061L6.13806 58.2509V42.5278H9.06016L9.20627 43.771C9.6585 43.1929 10.1525 42.782 10.6882 42.5382C11.2239 42.2875 11.7527 42.1621 12.2745 42.1621ZM11.2517 44.5964C10.8691 44.5964 10.5316 44.7113 10.2394 44.9411C9.94723 45.1709 9.67936 45.4843 9.43585 45.8813V50.5617C9.66545 50.903 9.90548 51.1537 10.1559 51.3139C10.4134 51.474 10.716 51.5542 11.0639 51.5542C11.6483 51.5542 12.104 51.2895 12.4311 50.7601C12.758 50.2238 12.9215 49.3325 12.9215 48.0857C12.9215 47.1663 12.8554 46.456 12.7232 45.9545C12.591 45.4461 12.3997 45.0943 12.1492 44.8993C11.8988 44.6973 11.5996 44.5964 11.2517 44.5964Z"
                  fill="url(#paint5_linear_1_388)"/>
            <path d="M27.9882 50.4259C27.9882 50.8437 28.0439 51.1467 28.1552 51.3348C28.2735 51.5228 28.4613 51.6657 28.7187 51.7631L28.0404 53.9362C27.3863 53.8735 26.8333 53.7307 26.381 53.5078C25.9358 53.278 25.5845 52.9332 25.327 52.4736C24.9026 52.982 24.3599 53.3615 23.699 53.6123C23.038 53.856 22.3632 53.978 21.6744 53.978C20.5333 53.978 19.6219 53.6541 18.9401 53.0063C18.2653 52.3517 17.9279 51.5124 17.9279 50.4886C17.9279 49.2837 18.3975 48.3538 19.3367 47.6991C20.2829 47.0445 21.6118 46.7172 23.3233 46.7172H24.8156V46.2992C24.8156 45.164 24.0851 44.5964 22.624 44.5964C22.2693 44.5964 21.8135 44.6486 21.2569 44.7531C20.7003 44.8505 20.1438 44.9932 19.5872 45.1813L18.8253 42.9875C19.542 42.7159 20.2864 42.5103 21.0586 42.3711C21.8378 42.2318 22.5336 42.1621 23.1458 42.1621C24.7947 42.1621 26.0123 42.4999 26.7984 43.1754C27.5916 43.8441 27.9882 44.8122 27.9882 46.0798V50.4259ZM22.8119 51.6169C23.1667 51.6169 23.539 51.5124 23.9286 51.3034C24.3182 51.0876 24.6139 50.7846 24.8156 50.3946V48.5977H24.0017C23.0832 48.5977 22.4084 48.7404 21.9771 49.0259C21.5457 49.3045 21.33 49.7155 21.33 50.2588C21.33 50.6836 21.4587 51.0179 21.7161 51.2616C21.9805 51.4985 22.3458 51.6169 22.8119 51.6169Z"
                  fill="url(#paint6_linear_1_388)"/>
            <path d="M41.6354 42.5278L37.9411 53.6228H34.0589L30.3226 42.5278H33.8814L36.0417 51.0945L38.2958 42.5278H41.6354Z"
                  fill="url(#paint7_linear_1_388)"/>
            <path d="M53.0285 50.4259C53.0285 50.8437 53.0841 51.1467 53.1955 51.3348C53.3137 51.5228 53.5016 51.6657 53.759 51.7631L53.0807 53.9362C52.4266 53.8735 51.8736 53.7307 51.4214 53.5078C50.976 53.278 50.6248 52.9332 50.3673 52.4736C49.9429 52.982 49.4002 53.3615 48.7393 53.6123C48.0783 53.856 47.4035 53.978 46.7147 53.978C45.5736 53.978 44.6622 53.6541 43.9804 53.0063C43.3055 52.3517 42.9681 51.5124 42.9681 50.4886C42.9681 49.2837 43.4378 48.3538 44.377 47.6991C45.3232 47.0445 46.6521 46.7172 48.3635 46.7172H49.8559V46.2992C49.8559 45.164 49.1254 44.5964 47.6644 44.5964C47.3096 44.5964 46.8538 44.6486 46.2972 44.7531C45.7406 44.8505 45.184 44.9932 44.6275 45.1813L43.8657 42.9875C44.5823 42.7159 45.3267 42.5103 46.0989 42.3711C46.8782 42.2318 47.5739 42.1621 48.1861 42.1621C49.835 42.1621 51.0525 42.4999 51.8387 43.1754C52.6319 43.8441 53.0285 44.8122 53.0285 46.0798V50.4259ZM47.8521 51.6169C48.207 51.6169 48.5793 51.5124 48.9689 51.3034C49.3585 51.0876 49.6541 50.7846 49.8559 50.3946V48.5977H49.0419C48.1235 48.5977 47.4487 48.7404 47.0173 49.0259C46.586 49.3045 46.3703 49.7155 46.3703 50.2588C46.3703 50.6836 46.4991 51.0179 46.7564 51.2616C47.0208 51.4985 47.3861 51.6169 47.8521 51.6169Z"
                  fill="url(#paint8_linear_1_388)"/>
            <path d="M56.2189 53.6227V42.5278H59.0993L59.3289 43.8128C59.8229 43.2556 60.3446 42.8412 60.8943 42.5696C61.4439 42.2979 62.0701 42.1621 62.7728 42.1621C63.7189 42.1621 64.4634 42.4511 65.0061 43.0293C65.5487 43.6074 65.82 44.4222 65.82 45.4739V53.6227H62.5223V46.4246C62.5223 45.7421 62.4458 45.2685 62.2927 45.0037C62.1466 44.7322 61.8683 44.5964 61.4577 44.5964C61.1099 44.5964 60.776 44.7077 60.4559 44.9307C60.1428 45.1535 59.8297 45.4634 59.5168 45.8604V53.6227H56.2189Z"
                  fill="url(#paint9_linear_1_388)"/>
            <path d="M76.9314 42.1621C77.7174 42.1621 78.2985 42.4199 78.6742 42.9353C79.0568 43.4436 79.2481 44.269 79.2481 45.4112V53.6227H76.42V45.7873C76.42 45.3973 76.3817 45.1222 76.3052 44.962C76.2356 44.8017 76.0894 44.7217 75.8668 44.7217C75.693 44.7217 75.512 44.774 75.3241 44.8784C75.1433 44.9759 74.9415 45.164 74.7189 45.4425V53.6227H72.4021V45.7873C72.4021 45.3973 72.3638 45.1222 72.2873 44.962C72.2177 44.8017 72.0716 44.7217 71.8489 44.7217C71.6751 44.7217 71.4941 44.774 71.3062 44.8784C71.1254 44.9759 70.9236 45.164 70.701 45.4425V53.6227H67.8311V42.5278H70.2522L70.4714 43.6038C70.8193 43.1302 71.1707 42.7715 71.5254 42.5278C71.8803 42.284 72.3012 42.1621 72.7882 42.1621C73.2056 42.1621 73.5604 42.27 73.8527 42.486C74.1519 42.695 74.3641 43.0257 74.4893 43.4784C74.8233 43.0884 75.192 42.7715 75.5955 42.5278C75.9991 42.284 76.4443 42.1621 76.9314 42.1621Z"
                  fill="url(#paint10_linear_1_388)"/>
            <path d="M91.1004 40.7515L91.8728 43.1751C91.4832 43.3284 91.0274 43.4399 90.5057 43.5095C89.9838 43.5792 89.3751 43.6139 88.6794 43.6139C89.3751 43.9135 89.9038 44.2861 90.2656 44.7319C90.6344 45.1706 90.8187 45.7486 90.8187 46.4661C90.8187 47.1834 90.6274 47.8242 90.2448 48.3884C89.862 48.9456 89.3195 49.3844 88.6168 49.7047C87.9141 50.0252 87.0826 50.1853 86.1225 50.1853C85.6633 50.1853 85.2354 50.1435 84.8389 50.0599C84.7205 50.1226 84.6302 50.2131 84.5676 50.3316C84.5049 50.45 84.4736 50.5719 84.4736 50.6973C84.4736 50.8713 84.5431 51.028 84.6824 51.1673C84.8285 51.3067 85.1659 51.3763 85.6946 51.3763H87.5105C88.3732 51.3763 89.1176 51.5155 89.7438 51.7942C90.3769 52.0727 90.8674 52.4524 91.2153 52.9329C91.5631 53.4135 91.7371 53.9638 91.7371 54.5836C91.7371 55.7189 91.2397 56.6139 90.2448 57.2685C89.2498 57.9232 87.7714 58.2506 85.8094 58.2506C84.3901 58.2506 83.2908 58.1043 82.5117 57.8118C81.7393 57.5263 81.2002 57.1154 80.8941 56.5789C80.5949 56.0497 80.4453 55.4194 80.4453 54.688H83.3673C83.3673 55.0084 83.43 55.2696 83.5552 55.4716C83.6874 55.6806 83.9344 55.8338 84.2962 55.9313C84.6649 56.0288 85.1972 56.0776 85.8929 56.0776C86.5956 56.0776 87.1313 56.0218 87.5 55.9104C87.8688 55.7989 88.1192 55.6458 88.2515 55.4507C88.3906 55.2626 88.4602 55.0502 88.4602 54.8134C88.4602 54.4861 88.3314 54.2214 88.0741 54.0195C87.8166 53.8175 87.4097 53.7165 86.853 53.7165H85.0893C83.8926 53.7165 83.0229 53.4971 82.4803 53.0582C81.9376 52.6126 81.6663 52.0936 81.6663 51.5016C81.6663 51.0907 81.7741 50.7007 81.9898 50.3316C82.2124 49.9625 82.5221 49.6525 82.9187 49.4017C82.209 49.0256 81.701 48.5833 81.3949 48.075C81.0888 47.5596 80.9358 46.9431 80.9358 46.2258C80.9358 45.39 81.148 44.6726 81.5724 44.0737C81.9968 43.4677 82.5811 43.0011 83.3256 42.6738C84.077 42.3464 84.9329 42.1827 85.8929 42.1827C86.7208 42.1966 87.441 42.1409 88.0532 42.0155C88.6654 41.8832 89.2151 41.7057 89.7021 41.4827C90.189 41.2528 90.6552 41.0091 91.1004 40.7515ZM85.9764 44.3244C85.4546 44.3244 85.0406 44.4916 84.7345 44.8259C84.4283 45.1532 84.2753 45.6059 84.2753 46.184C84.2753 46.7969 84.4319 47.267 84.745 47.5944C85.058 47.9217 85.4686 48.0854 85.9764 48.0854C87.1034 48.0854 87.667 47.4376 87.667 46.1422C87.667 44.9304 87.1034 44.3244 85.9764 44.3244Z"
                  fill="url(#paint11_linear_1_388)"/>
        </g>
        <defs>
            <linearGradient id="paint0_linear_1_388" x1="-2.05005" y1="36.7549" x2="99.9719" y2="0.679714"
                            gradientUnits="userSpaceOnUse">
                <stop stop-color="#00C0FD"/>
                <stop offset="1" stop-color="#E70FAA"/>
            </linearGradient>
            <linearGradient id="paint1_linear_1_388" x1="-2.05004" y1="36.755" x2="99.972" y2="0.679755"
                            gradientUnits="userSpaceOnUse">
                <stop stop-color="#00C0FD"/>
                <stop offset="1" stop-color="#E70FAA"/>
            </linearGradient>
            <linearGradient id="paint2_linear_1_388" x1="-2.05001" y1="36.755" x2="99.972" y2="0.679757"
                            gradientUnits="userSpaceOnUse">
                <stop stop-color="#00C0FD"/>
                <stop offset="1" stop-color="#E70FAA"/>
            </linearGradient>
            <linearGradient id="paint3_linear_1_388" x1="-2.05005" y1="36.7549" x2="99.9719" y2="0.679708"
                            gradientUnits="userSpaceOnUse">
                <stop stop-color="#00C0FD"/>
                <stop offset="1" stop-color="#E70FAA"/>
            </linearGradient>
            <linearGradient id="paint4_linear_1_388" x1="-2.05008" y1="36.7549" x2="99.9719" y2="0.679722"
                            gradientUnits="userSpaceOnUse">
                <stop stop-color="#00C0FD"/>
                <stop offset="1" stop-color="#E70FAA"/>
            </linearGradient>
            <linearGradient id="paint5_linear_1_388" x1="-0.244481" y1="59.3455" x2="93.638" y2="39.507"
                            gradientUnits="userSpaceOnUse">
                <stop stop-color="#13B0F5"/>
                <stop offset="1" stop-color="#CA24B4"/>
            </linearGradient>
            <linearGradient id="paint6_linear_1_388" x1="-0.244388" y1="59.3455" x2="93.6381" y2="39.507"
                            gradientUnits="userSpaceOnUse">
                <stop stop-color="#13B0F5"/>
                <stop offset="1" stop-color="#CA24B4"/>
            </linearGradient>
            <linearGradient id="paint7_linear_1_388" x1="-0.244492" y1="59.3455" x2="93.638" y2="39.507"
                            gradientUnits="userSpaceOnUse">
                <stop stop-color="#13B0F5"/>
                <stop offset="1" stop-color="#CA24B4"/>
            </linearGradient>
            <linearGradient id="paint8_linear_1_388" x1="-0.244461" y1="59.3455" x2="93.638" y2="39.507"
                            gradientUnits="userSpaceOnUse">
                <stop stop-color="#13B0F5"/>
                <stop offset="1" stop-color="#CA24B4"/>
            </linearGradient>
            <linearGradient id="paint9_linear_1_388" x1="-0.244434" y1="59.3455" x2="93.6381" y2="39.507"
                            gradientUnits="userSpaceOnUse">
                <stop stop-color="#13B0F5"/>
                <stop offset="1" stop-color="#CA24B4"/>
            </linearGradient>
            <linearGradient id="paint10_linear_1_388" x1="-0.244473" y1="59.3455" x2="93.638" y2="39.507"
                            gradientUnits="userSpaceOnUse">
                <stop stop-color="#13B0F5"/>
                <stop offset="1" stop-color="#CA24B4"/>
            </linearGradient>
            <linearGradient id="paint11_linear_1_388" x1="-0.244413" y1="59.3452" x2="93.6381" y2="39.5067"
                            gradientUnits="userSpaceOnUse">
                <stop stop-color="#13B0F5"/>
                <stop offset="1" stop-color="#CA24B4"/>
            </linearGradient>
            <clipPath id="clip0_1_388">
                <rect width="97" height="59" fill="white"/>
            </clipPath>
        </defs>
    </g>
<g id="WebStorm"> <defs>
    <linearGradient x1="41.7030965%" y1="1.92488263%" x2="71.8761384%" y2="95.2347418%" id="linearGradient-1">
        <stop stop-color="#00CDD7" offset="28%">

        </stop>
        <stop stop-color="#2086D7" offset="94%">

        </stop>
    </linearGradient>
    <linearGradient x1="22.4892241%" y1="15.1271186%" x2="82.8771552%" y2="84.7627119%" id="linearGradient-2">
        <stop stop-color="#FFF045" offset="14%">

        </stop>
        <stop stop-color="#00CDD7" offset="37%">

        </stop>
    </linearGradient>
    <linearGradient x1="11171%" y1="-27691.7984%" x2="11907%" y2="-28759.6256%" id="linearGradient-3">
        <stop stop-color="#00CDD7" offset="28%">

        </stop>
        <stop stop-color="#2086D7" offset="94%">

        </stop>
    </linearGradient>
</defs>
    <g>
        <polygon fill="url(#linearGradient-1)" points="34.4 231.2 0 26.8 64 0.4 104.4 24.4 142 4.4 219.6 34.4 176 256">

        </polygon>
        <polygon fill="url(#linearGradient-2)" points="256 86.8 222.8 5.2 163.2 0 70.4 88.8 95.2 203.6 142 236 256 168.4 228 116">

        </polygon>
        <polygon fill="url(#linearGradient-3)" points="204.8 74.4 228 116 256 86.8 235.6 36">

        </polygon>
        <rect fill="#000000" x="48" y="48" width="160" height="160">

        </rect>
        <path d="M63.2,178 L123.2,178 L123.2,188 L63.2,188 L63.2,178 Z M141.6,125.6 L150,115.2 C156,120 162,123.2 169.6,123.2 C175.6,123.2 179.2,120.8 179.2,116.8 C179.2,113.2 176.8,111.2 166,108.4 C152.8,104.8 144.4,101.2 144.4,88 L144.4,87.6 C144.4,75.6 154,67.6 167.2,67.6 C176.04879,67.5627811 184.649333,70.5236236 191.6,76 L184,87.2 C179.170815,83.4261245 173.316089,81.1957528 167.2,80.8 C162,80.8 158.8,83.2 158.8,86.8 C158.8,91.2 161.6,92.8 172.8,95.6 C186,99.2 193.6,104 193.6,115.6 C193.6,128.8 183.6,136.4 169.6,136.4 C159.323641,136.02223 149.468301,132.220884 141.6,125.6 Z M128.8,68.8 L118.8,107.2 L107.6,68.8 L96.4,68.8 L85.2,107.2 L75.2,68.8 L59.6,68.8 L78.8,135.2 L91.2,135.2 L102,96.8 L112.8,135.2 L125.2,135.2 L144.4,68.8 L128.8,68.8 Z" fill="#FFFFFF">

        </path>
    </g>
</g>
    <g id="Git">
        <path fill-rule="evenodd" clip-rule="evenodd" d="M44 0C19.69 0 0 19.69 0 44C0 63.47 12.595 79.915 30.085 85.745C32.285 86.13 33.11 84.81 33.11 83.655C33.11 82.61 33.055 79.145 33.055 75.46C22 77.495 19.14 72.765 18.26 70.29C17.765 69.025 15.62 65.12 13.75 64.075C12.21 63.25 10.01 61.215 13.695 61.16C17.16 61.105 19.635 64.35 20.46 65.67C24.42 72.325 30.745 70.455 33.275 69.3C33.66 66.44 34.815 64.515 36.08 63.415C26.29 62.315 16.06 58.52 16.06 41.69C16.06 36.905 17.765 32.945 20.57 29.865C20.13 28.765 18.59 24.255 21.01 18.205C21.01 18.205 24.695 17.05 33.11 22.715C36.63 21.725 40.37 21.23 44.11 21.23C47.85 21.23 51.59 21.725 55.11 22.715C63.525 16.995 67.21 18.205 67.21 18.205C69.63 24.255 68.09 28.765 67.65 29.865C70.455 32.945 72.16 36.85 72.16 41.69C72.16 58.575 61.875 62.315 52.085 63.415C53.68 64.79 55.055 67.43 55.055 71.555C55.055 77.44 55 82.17 55 83.655C55 84.81 55.825 86.185 58.025 85.745C66.7597 82.796 74.3497 77.1822 79.7268 69.6937C85.1039 62.2052 87.9974 53.219 88 44C88 19.69 68.31 0 44 0Z" fill="#FFFEFE"/>
    </g>
</svg>
